<svg xmlns="http://www.w3.org/2000/svg" xmlns:xlink="http://www.w3.org/1999/xlink" fill="none" version="1.1" width="40" height="40" viewBox="0 0 40 40"><defs><clipPath id="master_svg0_90_481"><rect x="0" y="0" width="40" height="40" rx="0"/></clipPath></defs><g clip-path="url(#master_svg0_90_481)"><path d="M12.403715625,8.9166259765625C13.469299625,8.9166259765625,14.452897625,8.9990758895625,15.354532625,9.2464264065625C16.256181625,9.4113262265625,16.993848625,9.7411258865625,17.649682625,10.1533761765625C18.305347625,10.5656257765625,18.797181625,11.1427592765625,19.125015625,11.8848092765625C19.452848625,12.6268591765625,19.616847625,13.5338091765625,19.616847625,14.5232095765625C19.616847625,15.6775097765625,19.371015625,16.6669931765625,18.797181625,17.4089927765625C18.305347625,18.1509933765625,17.485682625000003,18.810659376562498,16.502081625000002,19.3053259765625C17.895515625,19.7174919765625,18.961015625,20.4596589765625,19.616847625,21.4489929765625C20.272516625,22.4383259765625,20.682348625,23.6751589765625,20.682348625,25.0768239765625C20.682348625,26.2311569765625,20.436513625,27.2204929765625,20.026681625,28.0449919765625C19.616847625,28.8694919765625,18.961015625,29.6114919765625,18.223348625,30.1063269765625C17.485682625000003,30.6009919765625,16.584048625,31.0131609765625,15.600447625,31.2604919765625C14.616831625,31.5078259765625,13.633231625,31.6728269765625,12.649615625,31.6728269765625L1.666015625,31.6728269765625L1.666015625,8.9166259765625L12.403715625,8.9166259765625ZM11.747981625,18.1509933765625C12.649615625,18.1509933765625,13.387331625,17.903658876562503,13.961099625,17.4914922765625C14.534864625,17.0791597765625,14.780764625,16.3371090765625,14.780764625,15.4301585765625C14.780764625,14.9354591765625,14.698798625,14.4407596765625,14.534864625,14.1109599765625C14.370931625,13.7811588765625,14.125032625,13.5338091765625,13.797165625,13.2864594765625C13.469299625,13.1215595765625,13.141431625,12.9566597765625,12.731581625,12.8742098765625C12.321748625,12.7917589765625,11.911915625,12.7917589765625,11.420115425,12.7917589765625L6.666015625,12.7917589765625L6.666015625,18.1509933765625L11.747981625,18.1509933765625ZM11.993882625,27.8801589765625C12.485681625,27.8801589765625,12.977498625,27.7976609765625,13.387331625,27.7151599765625C13.797165625,27.6328279765625,14.206997625,27.4678249765625,14.534864625,27.2204929765625C14.862731625,26.9731619765625,15.108631625,26.7258259765625,15.354532625,26.3134919765625C15.518481625,25.9013269765625,15.682414625,25.4066579765625,15.682414625,24.8294929765625C15.682414625,23.6751589765625,15.354549625,22.8506589765625,14.698798625,22.2734929765625C14.043065625,21.7788259765625,13.141431625,21.5314919765625,12.075848625,21.5314919765625L6.666015625,21.5314919765625L6.666015625,27.8801589765625L11.993882625,27.8801589765625ZM27.813514625,27.7976609765625C28.469348625,28.4573269765625,29.452848625,28.7869929765625,30.764346625,28.7869929765625C31.666015625,28.7869929765625,32.485681625,28.5396599765625,33.141349625000004,28.1274909765625C33.797180625,27.6328279765625,34.207012625,27.1379949765625,34.371013625,26.6433259765625L38.387348625,26.6433259765625C37.731513625,28.6221599765625,36.748016625,30.0238249765625,35.436515625,30.9308259765625C34.125015625,31.7553249765625,32.567682625,32.2499939765625,30.682348625,32.2499939765625C29.370847625,32.2499939765625,28.223348625,32.0026589765625,27.157846625,31.5903279765625C26.092182625,31.1781599765625,25.272516625,30.6009919765625,24.534849625,29.7764929765625C23.797181625,29.0343279765625,23.223348625,28.1274909765625,22.895515625,27.0556599765625C22.485681625,25.9838259765625,22.321681625,24.8294929765625,22.321681625,23.5103249765625C22.321681625,22.2734929765625,22.485681625,21.1191599765625,22.895515625,20.047326976562502C23.305347625,18.9754929765625,23.879180625,18.0684919765625,24.616847625,17.2439927765625C25.354514625,16.5020088765625,26.256181625,15.842409576562499,27.239847625,15.4301585765625C28.305349625,15.0179090765625,29.370847625,14.7705592765625,30.682348625,14.7705592765625C32.075847625,14.7705592765625,33.305349625000005,15.0179090765625,34.371013625,15.5950598765625C35.436515625,16.172209276562498,36.256183625,16.8318261765625,36.911846625,17.8211602765625C37.567680625,18.7281598765625,38.059512625,19.7999929765625,38.387348625,20.9543269765625C38.551181625,22.108658976562502,38.633182625,23.2628249765625,38.551181625,24.5821599765625L26.666015625,24.5821599765625C26.666015625,25.9013269765625,27.157846625,27.1379949765625,27.813514625,27.7976609765625ZM32.977514625,19.1404919765625C32.403682625,18.563324976562498,31.502014625,18.2334918765625,30.436515625,18.2334918765625C29.698848625,18.2334918765625,29.125017625,18.3983249765625,28.633180625,18.6456594765625C28.141349625,18.8929929765625,27.813514625,19.2228259765625,27.485681625,19.552658976562498C27.157846625,19.8824919765625,26.993846625,20.294658976562502,26.911846625,20.7069929765625C26.830015625,21.1191599765625,26.748014625,21.4489929765625,26.748014625,21.7788259765625L34.125015625,21.7788259765625C33.961181625,20.5419929765625,33.551181625,19.7174919765625,32.977514625,19.1404919765625ZM25.764346625,10.4831591765625L34.944679625,10.4831591765625L34.944679625,12.7093090765625L25.764346625,12.7093090765625L25.764346625,10.4831591765625Z" fill="#111925" fill-opacity="1"/></g></svg>