<svg xmlns="http://www.w3.org/2000/svg" xmlns:xlink="http://www.w3.org/1999/xlink" fill="none" version="1.1" width="40" height="40" viewBox="0 0 40 40"><defs><clipPath id="master_svg0_90_937"><rect x="0" y="0" width="40" height="40" rx="0"/></clipPath></defs><g clip-path="url(#master_svg0_90_937)"><path d="M10.1731663,9.84951398359375C11.145899799999999,10.63974758359375,11.5107994,10.57944778359375,13.3373003,10.45759728359375L30.556999,9.42361398359375C30.922167,9.42361398359375,30.618498,9.05926368359375,30.496832,8.998713983593749L27.636997,6.93129758359375C27.089001,6.5058805835937505,26.358833,6.01868058359375,24.959665,6.14054748359375L8.2858331,7.35669758359375C7.6777496,7.41699768359375,7.5562835,7.72101378359375,7.7984834,7.96474768359375L10.1731663,9.84951398359375ZM11.2070327,13.86251448359375L11.2070327,31.98064618359375C11.2070327,32.954313183593754,11.6936331,33.318645183593745,12.7888327,33.258312183593745L31.713333,32.16331318359375C32.809,32.10314518359375,32.931,31.43331318359375,32.931,30.64231518359375L32.931,12.64586448359375C32.931,11.85614778359375,32.627335,11.43024778359375,31.956501,11.491047883593751L12.180249700000001,12.64586448359375C11.450449500000001,12.70719718359375,11.2070327,13.07226368359375,11.2070327,13.86251448359375ZM29.889166,14.83441318359375C30.0105,15.38219718359375,29.889166,15.92943018359375,29.340498,15.99098018359375L28.428499,16.17266418359375L28.428499,29.54864918359375C27.636997,29.97415018359375,26.906834,30.21731418359375,26.2985,30.21731418359375C25.324499,30.21731418359375,25.080666,29.91314918359375,24.351166,29.00164618359375L18.386832,19.63831418359375L18.386832,28.69764718359375L20.274167,29.12348218359375Q20.274167,30.21731418359375,18.7515,30.21731418359375L14.5536995,30.46081518359375C14.4317493,30.21731418359375,14.5536995,29.60981418359375,14.9794827,29.48814818359375L16.074901,29.18464618359375L16.074901,17.20664818359375L14.5539503,17.08481518359375C14.4319992,16.537015183593752,14.7357664,15.74726418359375,15.588299,15.68596318359375L20.0915,15.38241418359375L26.2985,24.86748118359375L26.2985,16.47669818359375L24.716,16.295047183593752C24.5945,15.62541518359375,25.080666,15.13919818359375,25.689165,15.07889718359375L29.889166,14.83441318359375ZM6.8858496,5.71514748359375L24.229332,4.43796427559375C26.359167,4.25528081359375,26.907167,4.37764755859375,28.245832,5.35006433359375L33.781998,9.241197583593749C34.695501,9.91031408359375,35,10.09249738359375,35,10.821913683593749L35,32.16331318359375C35,33.50081218359375,34.512834999999995,34.291813183593746,32.809334,34.412811183593746L12.6683497,35.62914618359375C11.3895993,35.69014718359375,10.780999699999999,35.50781418359375,10.1113334,34.65614518359375L6.0343332,29.36648018359375C5.30378342,28.39281418359375,5,27.66431418359375,5,26.81214718359375L5,7.84239748359375C5,6.7486140835937505,5.4873665,5.8362640835937505,6.8858496,5.71514748359375Z" fill="#111925" fill-opacity="1"/></g></svg>