<svg xmlns="http://www.w3.org/2000/svg" xmlns:xlink="http://www.w3.org/1999/xlink" fill="none" version="1.1" width="40" height="40" viewBox="0 0 40 40"><defs><clipPath id="master_svg0_90_489"><rect x="0" y="0" width="40" height="40" rx="0"/></clipPath></defs><g clip-path="url(#master_svg0_90_489)"><path d="M30.372316375,5.14346433015625C31.185985375,5.95704746015625,31.185985375,7.27614716015625,30.372316375,8.08973046015625L28.467317375,9.99368096015625L30.417316375,9.99434756015625C33.869150375000004,9.99434756015625,36.667316375,12.79256346015625,36.667316375,16.244347160156252L36.667316375,28.74431216015625C36.667316375,32.19614416015625,33.869150375000004,34.994310160156246,30.417316375,34.994310160156246L9.583984375,34.994310160156246C6.132200975,34.994310160156246,3.333984375,32.19614416015625,3.333984375,28.74431216015625L3.333984375,16.244347160156252C3.333984375,12.79256346015625,6.132200975,9.99434756015625,9.583984375,9.99434756015625L11.527734775,9.99368096015625L9.625084375,8.09133126015625C8.811501074999999,7.27773096015625,8.811501074999999,5.95864756015625,9.625084375,5.14504743015625C10.438683975,4.33146429015625,11.757766675,4.33146429015625,12.571367275,5.14504743015625L16.990818375,9.56446406015625C17.122150375,9.695864160156251,17.232317375,9.84044786015625,17.321316375000002,9.99394706015625L22.674984375,9.99433086015625C22.764150375,9.840097460156251,22.874649375,9.69483046015625,23.006651375,9.56288096015625L27.426149375,5.14346433015625C28.239648375,4.32986411015625,29.558817375,4.32986411015625,30.372316375,5.14346433015625ZM30.417316375,14.17768196015625L9.583984375,14.17768196015625C8.485684375,14.17768196015625,7.585900775,15.02754716015625,7.506367175,16.10553116015625L7.500650875,16.261015160156248L7.500650875,28.76098016015625C7.500650875,29.85931416015625,8.350517775,30.75914716015625,9.428501175000001,30.83864816015625L9.583984375,30.84431316015625L30.417316375,30.84431316015625C31.515651375,30.84431316015625,32.415483375,29.99448216015625,32.494981374999995,28.91647916015625L32.500650375,28.76098016015625L32.500650375,16.261015160156248C32.500650375,15.11041416015625,31.567981375,14.17768196015625,30.417316375,14.17768196015625ZM13.750650375,18.34431416015625C14.901250375,18.34431416015625,15.833984375,19.27714816015625,15.833984375,20.427648160156252L15.833984375,22.51098016015625C15.833984375,23.66164616015625,14.901250375,24.59431416015625,13.750650375,24.59431416015625C12.600050975,24.59431416015625,11.667317375,23.66164616015625,11.667317375,22.51098016015625L11.667317375,20.427648160156252C11.667317375,19.27714816015625,12.600050975,18.34431416015625,13.750650375,18.34431416015625ZM26.250650375,18.34431416015625C27.401315375,18.34431416015625,28.333984375,19.27714816015625,28.333984375,20.427648160156252L28.333984375,22.51098016015625C28.333984375,23.66164616015625,27.401315375,24.59431416015625,26.250650375,24.59431416015625C25.099983375,24.59431416015625,24.167316375,23.66164616015625,24.167316375,22.51098016015625L24.167316375,20.427648160156252C24.167316375,19.27714816015625,25.099983375,18.34431416015625,26.250650375,18.34431416015625Z" fill="#111925" fill-opacity="1"/></g></svg>