<svg xmlns="http://www.w3.org/2000/svg" xmlns:xlink="http://www.w3.org/1999/xlink" fill="none" version="1.1" width="40" height="40" viewBox="0 0 40 40"><defs><clipPath id="master_svg0_90_0393"><rect x="0" y="0" width="40" height="40" rx="0"/></clipPath></defs><g clip-path="url(#master_svg0_90_0393)"><path d="M20.407150375,6.666656494140625C21.297317375,6.671556790340625,23.524482375,6.693089962140625,25.890815375,6.787873264140625L26.729818375,6.824456214140625C29.112316375,6.937256814140625,31.492817375,7.129956244140625,32.673484375,7.459156634140625C34.248315375000004,7.901573294140625,35.486148375,9.192489894140625,35.904483375,10.828856494140625C36.570648375,13.427339594140625,36.653984375,18.498989494140623,36.664314375,19.726323494140622L36.665817375,19.980656494140625L36.665817375,19.998489494140625Q36.665817375,20.004655494140625,36.665817375,20.016489494140625L36.664314375,20.270823494140625C36.653984375,21.498156494140623,36.570648375,26.569822494140624,35.904483375,29.168321494140624C35.480316375,30.810657494140624,34.242483375,32.10165549414063,32.673484375,32.53799049414063C31.492817375,32.86715649414063,29.112316375,33.059822494140626,26.729818375,33.17265749414062L25.890815375,33.20915749414063C23.524482375,33.303991494140625,21.297317375,33.325489494140626,20.407150375,33.330490494140626L20.016483375,33.33182149414063L19.999149375,33.33182149414063Q19.993316375,33.33182149414063,19.981817375,33.33182149414063L19.591484375,33.330490494140626C17.707483375000002,33.320156494140626,9.830183975,33.23498949414062,7.3248338749999995,32.53799049414063C5.749984275,32.09548749414063,4.512184175,30.804655494140626,4.093767525,29.168321494140624C3.427651085,26.569822494140624,3.344384193,21.498156494140623,3.333984375,20.270823494140625L3.333984375,19.726323494140622C3.344384193,18.498989494140623,3.427651085,13.427339594140625,4.093767525,10.828856494140625C4.517984475,9.186422794140626,5.755784275,7.895523094140625,7.3248338749999995,7.459156634140625C9.830183975,6.762039818140625,17.707483375000002,6.677022934140625,19.591484375,6.666656494140625L20.407150375,6.666656494140625ZM16.665834375,14.165222694140624L16.665834375,25.831821494140623L26.665817375,19.998489494140625L16.665834375,14.165222694140624Z" fill="#111925" fill-opacity="1"/></g></svg>