<svg xmlns="http://www.w3.org/2000/svg" xmlns:xlink="http://www.w3.org/1999/xlink" fill="none" version="1.1" width="40" height="40" viewBox="0 0 40 40"><defs><clipPath id="master_svg0_22975_313"><rect x="0" y="0" width="40" height="40" rx="0"/></clipPath></defs><g clip-path="url(#master_svg0_22975_313)"><path d="M16,35.1027982861023C16.2548008,34.56919828610229,16.46800041,34.109599286102295,16.69599915,33.65559728610229C17.2195206,32.725391286102294,17.6913033,31.767001286102296,18.1091995,30.784797286102293C18.356399500000002,29.863197286102295,19.2931995,29.302398286102296,20.2276001,29.517596286102297C21.5636005,29.608796286102294,22.9088001,29.537996286102295,24.3008003,29.537996286102295L24.3008003,12.847200386102294C23.3619995,12.847200386102294,22.437601100000002,12.814800286102294,21.5160007,12.847200386102294C20.8760014,12.879199986102295,20.6512012,12.679200186102296,20.668800400000002,12.019200286102295C20.7131996,10.439200386102295,20.668800400000002,8.853600486102295,20.668800400000002,7.200000286102295L33.703998999999996,7.200000286102295L33.703998999999996,11.031599986102295C33.703998999999996,12.835599886102294,33.703998999999996,12.835599886102294,31.881998,12.835599886102294L30.051197000000002,12.835599886102294L30.051197000000002,29.526399286102293L34.005997,29.526399286102293C35.599998,29.526399286102293,35.599998,29.526399286102293,35.599998,31.132798286102293L35.599998,34.498397286102296C35.599998,34.96440028610229,35.478401000000005,35.200000286102295,34.953998999999996,35.200000286102295Q25.6723976,35.182399286102296,16.39119911,35.185199286102296C16.25909805,35.166530286102294,16.12840271,35.139003286102295,16,35.1027982861023Z" fill="#111925" fill-opacity="1"/><path d="M18.65160009536743,23.17399940109253C17.83960009536743,24.81279940109253,17.125599095367434,26.27439840109253,16.37920009536743,27.71520040109253C16.24520009536743,27.88199940109253,16.04520109536743,27.97960040109253,15.833201095367432,27.98199940109253C14.027201195367432,27.98199940109253,12.212400395367432,28.05079940109253,10.412400295367432,27.919200401092528C8.61240009536743,27.78720040109253,7.889200195367431,26.65520040109253,8.606400495367431,24.92360040109253C9.426400195367432,22.92560140109253,10.409200695367431,20.99640040109253,11.318400395367432,19.03760140109253C11.374400095367431,18.91440140109253,11.418400795367432,18.78880040109253,11.527600295367431,18.51320040109253C10.79880049536743,18.51320040109253,10.158400495367431,18.53120040109253,9.521200195367431,18.51320040109253C9.001441995367433,18.52024440109253,8.482329395367431,18.474002401092527,7.972000095367432,18.37519940109253C6.750400095367432,18.23439940109253,6.0391997953674315,16.90360040109253,6.588000295367431,15.787200401092528C7.682800295367432,13.21400020109253,8.907199895367432,10.69520000109253,10.090800295367432,8.16360000109253C10.47720049536743,7.3340001010925295,10.878800395367431,6.513199801092529,11.31240079536743,5.707599641092529C11.424401295367431,5.49759960109253,11.681200995367432,5.23119974109253,11.878800395367431,5.22519969909253C13.570000195367431,5.185999870092529,15.260800095367431,5.2039995193925295,17.10520009536743,5.2039995193925295C16.94560109536743,5.60559940109253,16.854401095367432,5.881199361092529,16.73040009536743,6.13879967109253Q15.178400095367431,9.313999201092528,13.617199395367432,12.483200101092528C13.407598995367431,12.911600101092528,13.153599295367432,13.35799930109253,13.938799395367433,13.68160010109253C14.147999295367432,12.582000701092529,14.991999095367431,12.78280070109253,15.732800095367432,12.78280070109253L20.000000095367433,12.78280070109253C19.820000095367433,13.19880100109253,19.704800095367432,13.48960070109253,19.572001095367433,13.768399701092529C18.25600109536743,16.46440040109253,16.91600109536743,19.13919940109253,15.61760009536743,21.82920040109253C15.08359909536743,22.92520140109253,15.263600095367432,23.19200040109253,16.50320109536743,23.20400040109253C17.15240109536743,23.17999940109253,17.79840109536743,23.17399940109253,18.65160009536743,23.17399940109253L18.65160009536743,23.17399940109253ZM16.000000095367433,29.589198401092528C15.002800095367432,31.50919840109253,14.11120079536743,33.23599940109253,13.199200195367432,34.951198401092526C13.091200395367432,35.099197401092525,12.92120029536743,35.190799401092534,12.737598895367432,35.199996401092534Q9.065599395367432,35.155997401092534,5.382799145367431,35.06799640109253C5.047729965367432,35.018409401092526,4.718481065367431,34.93532540109253,4.400000095367432,34.81999940109253L5.770800095367432,32.16239840109253C6.217999895367432,31.284398401092528,6.6536001953674315,30.40639840109253,7.133200195367431,29.57199840109253C7.264191195367432,29.366857401092528,7.479693895367431,29.23066440109253,7.7211999953674315,29.20039940109253C9.969200095367432,29.30839840109253,12.216800695367432,29.45799940109253,14.46440009536743,29.589599401092528C14.917199095367431,29.60999840109253,15.343998095367432,29.589599401092528,16.000000095367433,29.589198401092528L16.000000095367433,29.589198401092528Z" fill="#111925" fill-opacity="1"/></g></svg>