<svg xmlns="http://www.w3.org/2000/svg" xmlns:xlink="http://www.w3.org/1999/xlink" fill="none" version="1.1" width="40" height="40" viewBox="0 0 40 40"><defs><clipPath id="master_svg0_90_0209"><rect x="0" y="0" width="40" height="40" rx="0"/></clipPath></defs><g clip-path="url(#master_svg0_90_0209)"><path d="M26.666666,13.74226298828125L26.666666,25.83331298828125C26.666666,31.81647698828125,21.8165,36.66664498828125,15.833333,36.66664498828125C9.8502498,36.66664498828125,5,31.81647698828125,5,25.83331298828125C5,19.85014498828125,9.8502498,14.99997898828125,15.833333,14.99997898828125C16.693832999999998,14.99997898828125,17.530833,15.10029598828125,18.333333,15.28986298828125L18.333333,20.56131198828125C17.575665,20.20131298828125,16.728001,19.99997898828125,15.833333,19.99997898828125C12.6116662,19.99997898828125,10,22.61164698828125,10,25.83331298828125C10,29.05497898828125,12.6116662,31.66664498828125,15.833333,31.66664498828125C19.054999000000002,31.66664498828125,21.666666,29.05497898828125,21.666666,25.83331298828125L21.666666,3.33331298828125L26.666666,3.33331298828125C26.666666,7.93567898828125,30.397665,11.66664598828125,35,11.66664598828125L35,16.66664598828125C31.846834,16.66664598828125,28.949333,15.57211198828125,26.666666,13.74226298828125Z" fill="#111925" fill-opacity="1"/></g></svg>