<svg xmlns="http://www.w3.org/2000/svg" xmlns:xlink="http://www.w3.org/1999/xlink" fill="none" version="1.1" width="40" height="40" viewBox="0 0 40 40"><defs><clipPath id="master_svg0_90_777"><rect x="0" y="0" width="40" height="40" rx="0"/></clipPath></defs><g clip-path="url(#master_svg0_90_777)"><path d="M21.7144715,3.33453369140625C23.5901375,3.33763353010625,24.5406395,3.34756684340625,25.3619725,3.37201706340625L25.6854705,3.38258377440625C26.0591395,3.39586687040625,26.4278045,3.41253352140625,26.8723065,3.43336693240625C28.6458035,3.51531696140625,29.8556385,3.79586688140625,30.9181385,4.20836675140625C32.0166375,4.63198379140625,32.9444715,5.20420029140625,33.8708035,6.13060019140625C34.7958045,7.05698349140625,35.3681415,7.98753359140625,35.7931365,9.083366391406251C36.2041395,10.14448359140625,36.4848065,11.35560039140625,36.5681385,13.12919999140625C36.5879705,13.57365069140625,36.6039695,13.94231669140625,36.6171375,14.31604969140625L36.6276395,14.63953269140625C36.6519735,15.46076669140625,36.6631355,16.411416691406252,36.6666375,18.28714869140625L36.6679725,19.52981769140625C36.6681365,19.68164869140625,36.6681365,19.83831569140625,36.6681365,19.99998269140625L36.6679725,20.47014969140625L36.6669695,21.71298169140625C36.6638035,23.58864969140625,36.6539725,24.53931569140625,36.6294705,25.36048269140625L36.6188045,25.68398269140625C36.6056365,26.05781769140625,36.5889735,26.42648169140625,36.5681385,26.87081569140625C36.4861375,28.64448369140625,36.2041395,29.85414869140625,35.7931365,30.91664669140625C35.3694725,32.01531569140625,34.7958045,32.94314769140625,33.8708035,33.869479691406255C32.9444715,34.79448169140625,32.0124705,35.36664569140625,30.9181385,35.79164869140625C29.8556385,36.20281569140625,28.6458035,36.48331469140625,26.8723065,36.56665069140625C26.4278045,36.58648269140625,26.0591395,36.60264569140625,25.6854705,36.61564969140625L25.3619725,36.62614869140625C24.5406395,36.65064969140625,23.5901375,36.66164769140625,21.7144715,36.66531769140625L20.4716375,36.66664869140625C20.3198075,36.66664869140625,20.1631375,36.66664869140625,20.0014725,36.66664869140625L19.5313055,36.66664869140625L18.288470500000003,36.66548169140625C16.412805499999997,36.66247969140625,15.4621715,36.65248469140625,14.6409215,36.62798269140625L14.3174545,36.61748469140625C13.9437045,36.60414869140625,13.5750375,36.58748269140625,13.1306047,36.56665069140625C11.356988,36.48481369140625,10.1486549,36.20281569140625,9.0847716,35.79164869140625C7.9875383,35.36814869140625,7.0583708000000005,34.79448169140625,6.131988,33.869479691406255C5.2056046,32.94314769140625,4.6347712,32.01114869140625,4.20977104,30.91664669140625C3.7972711,29.85414869140625,3.5181044,28.64448369140625,3.434771143,26.87081569140625C3.414970882,26.42648169140625,3.398821197,26.05781769140625,3.385737579,25.68398269140625L3.375254314,25.36048269140625C3.350870849,24.53931569140625,3.3397541842,23.58864969140625,3.33615446092,21.71298169140625L3.3359375,18.28714869140625C3.3390377364,16.411416691406252,3.34895436,15.46076669140625,3.373404186,14.63953269140625L3.383987587,14.31604969140625C3.397271078,13.94231669140625,3.413937733,13.57365069140625,3.434771143,13.12919999140625C3.51670448,11.35420039140625,3.7972711,10.14586689140625,4.20977104,9.083366391406251C4.633371,7.98614979140625,5.2056046,7.05698349140625,6.131988,6.13060019140625C7.0583708000000005,5.20420029140625,7.9889379,4.63336699140625,9.0847716,4.20836675140625C10.147271199999999,3.79586688140625,11.3556042,3.51670018140625,13.1306047,3.43336693240625C13.5750375,3.41358375540625,13.9437045,3.39743367540625,14.3174545,3.38435045640625L14.6409215,3.37386679640625C15.4621715,3.34946703940625,16.412805499999997,3.33835037540625,18.288470500000003,3.33475025494625L21.7144715,3.33453369140625ZM20.0014725,11.66670039140625C15.3966045,11.66670039140625,11.6681042,15.39924969140625,11.6681042,19.99998269140625C11.6681042,24.60481869140625,15.4006545,28.33331469140625,20.0014725,28.33331469140625C24.6063065,28.33331469140625,28.3348045,24.60081469140625,28.3348045,19.99998269140625C28.3348045,15.39520069140625,24.6021385,11.66670039140625,20.0014725,11.66670039140625ZM20.0014725,15.00003269140625C22.7629695,15.00003269140625,25.0014745,17.23781769140625,25.0014745,19.99998269140625C25.0014745,22.76148269140625,22.7636375,24.99998269140625,20.0014725,24.99998269140625C17.2399725,24.99998269140625,15.0014395,22.76231569140625,15.0014395,19.99998269140625C15.0014395,17.23848169140625,17.2391395,15.00003269140625,20.0014725,15.00003269140625ZM28.7514705,9.16670039140625C27.6026405,9.16670039140625,26.6681365,10.09988309140625,26.6681365,11.24861669140625C26.6681365,12.39736649140625,27.6013055,13.33198359140625,28.7514705,13.33198359140625C29.9001385,13.33198359140625,30.8348045,12.39881709140625,30.8348045,11.24861669140625C30.8348045,10.09988309140625,29.8986395,9.16526649140625,28.7514705,9.16670039140625Z" fill="#111925" fill-opacity="1"/></g></svg>